<svg width="98" height="20" viewBox="0 0 98 20" fill="none" xmlns="http://www.w3.org/2000/svg">
<path fill-rule="evenodd" clip-rule="evenodd" d="M11.2311 1.52549C13.968 -0.197582 17.041 -0.544098 19.3752 0.914323C23.0632 3.21905 23.5116 9.15459 20.3748 14.1724C18.0634 17.8727 14.4488 20.0394 11.2311 19.9995C8.01346 20.0394 4.39977 17.8718 2.08743 14.1724C-1.04837 9.15459 -0.599987 3.21905 3.08795 0.914323C5.42219 -0.544098 8.49515 -0.197582 11.2311 1.52549ZM2.33589 9.79908C2.63672 10.9424 3.12318 12.0572 3.78289 13.1129C4.20462 13.7878 4.6787 14.4085 5.19847 14.9683C4.53495 12.2618 5.11375 8.87471 7.0196 5.82554C7.73929 4.67461 8.58559 3.67123 9.50615 2.83731C9.25102 2.70498 8.99399 2.58503 8.7341 2.48127C7.00722 1.79489 5.37745 1.83964 4.1475 2.60883C2.91755 3.37803 2.16264 4.82216 2.0227 6.67565C1.94749 7.67142 2.05316 8.7224 2.33589 9.79908ZM18.6803 13.1138C19.34 12.0581 19.8265 10.9433 20.1273 9.80003C20.411 8.72335 20.5167 7.67237 20.4405 6.67661C20.3006 4.82312 19.5466 3.37898 18.3157 2.60978C17.0857 1.84059 15.4569 1.79489 13.7291 2.48222C12.8009 2.85063 11.9023 3.40659 11.0588 4.13294C10.163 4.90404 9.37477 5.8303 8.71506 6.88604C8.05534 7.94178 7.56888 9.05654 7.26806 10.1999C6.98533 11.2765 6.87966 12.3275 6.95486 13.3233C7.0948 15.1768 7.84876 16.6209 9.07966 17.3901C9.69464 17.7737 10.4086 17.9775 11.1845 17.9994H11.2787C12.0546 17.9775 12.7686 17.7737 13.3835 17.3901C14.6135 16.6209 15.3684 15.1768 15.5083 13.3233C15.5835 12.3275 15.4779 11.2765 15.1951 10.1999C15.1199 9.91331 15.0314 9.62867 14.9324 9.34594L11.9889 11.1851C11.8156 11.2937 11.5862 11.2413 11.4777 11.0671L10.8123 10.0018C10.7037 9.82858 10.7561 9.59916 10.9303 9.49064L15.4712 6.65281C15.6578 6.53571 15.8948 6.60045 15.9976 6.79656C17.4561 9.57917 17.8578 12.5474 17.2638 14.9702C17.7845 14.4085 18.2586 13.7878 18.6803 13.1138Z" fill="#111111"/>
<path fill-rule="evenodd" clip-rule="evenodd" d="M47.8935 11.8097C47.8935 9.4383 45.9639 7.57434 43.5602 7.57434C41.1726 7.57434 39.243 9.4383 39.243 11.8097C39.243 14.1639 41.1726 15.9955 43.5602 15.9955C45.9639 15.9955 47.8935 14.1648 47.8935 11.8097ZM45.5146 11.7935C45.5146 12.894 44.6768 13.7841 43.5602 13.7841C42.4597 13.7841 41.6219 12.894 41.6219 11.7935C41.6219 10.693 42.4597 9.78672 43.5602 9.78672C44.6768 9.78672 45.5146 10.693 45.5146 11.7935Z" fill="#111111"/>
<path fill-rule="evenodd" clip-rule="evenodd" d="M53.2769 15.767C56.7926 15.767 59.2353 13.429 59.2353 10.0276C59.2353 6.60999 56.7926 4.3205 53.2769 4.3205H48.8845C48.6722 4.3205 48.5247 4.48424 48.5247 4.68034V15.391C48.5247 15.6033 48.6722 15.767 48.8845 15.767H53.2769ZM53.3807 6.57762C55.3275 6.57762 56.6679 8.03224 56.6679 10.0276C56.6679 11.9896 55.3265 13.5099 53.3807 13.5108H50.977V6.57762H53.3807Z" fill="#111111"/>
<path fill-rule="evenodd" clip-rule="evenodd" d="M65.9858 8.65387C65.6097 8.03224 64.7596 7.57434 63.6963 7.57434C61.6362 7.57434 59.7065 9.19364 59.7065 11.7773C59.7065 14.3448 61.62 15.9964 63.6801 15.9964C64.7434 15.9964 65.6097 15.5385 65.9858 14.9169V15.4243C65.9858 15.6204 66.1495 15.768 66.3294 15.768H67.9811C68.1772 15.768 68.3248 15.6204 68.3248 15.4243V8.16361C68.3248 7.9675 68.1772 7.80376 67.9811 7.80376H66.3294C66.1657 7.80376 65.9858 7.9675 65.9858 8.16361V8.65387ZM66.0533 11.7935C66.0533 12.9596 65.2327 13.8002 64.138 13.8002C63.0442 13.8002 62.2226 12.9596 62.2226 11.7935C62.2226 10.6273 63.0432 9.78672 64.138 9.78672C65.2327 9.78672 66.0533 10.6273 66.0533 11.7935Z" fill="#111111"/>
<path fill-rule="evenodd" clip-rule="evenodd" d="M75.2408 8.62056C74.8648 8.03224 73.9985 7.57434 72.919 7.57434C70.8741 7.57434 68.9778 9.19269 68.9778 11.7763C68.9778 14.3438 70.8913 15.9955 72.9513 15.9955C74.0137 15.9955 74.8153 15.5376 75.257 14.9159V15.4233C75.257 15.6204 75.4207 15.767 75.6007 15.767H77.2523C77.4484 15.767 77.596 15.6195 77.596 15.4233V4.66321C77.596 4.46615 77.4484 4.31954 77.2523 4.31954H75.6007C75.4046 4.31954 75.2408 4.4671 75.2408 4.66321V8.62056ZM75.317 11.7935C75.317 12.972 74.5002 13.8212 73.4102 13.8212C72.3202 13.8212 71.5024 12.972 71.5034 11.7935C71.5034 10.6149 72.3202 9.76578 73.4102 9.76578C74.4992 9.76578 75.317 10.6149 75.317 11.7935Z" fill="#111111"/>
<path fill-rule="evenodd" clip-rule="evenodd" d="M84.5121 8.62056C84.136 8.03224 83.2697 7.57434 82.1902 7.57434C80.1463 7.57434 78.2491 9.19269 78.2491 11.7763C78.2491 14.3438 80.1625 15.9955 82.2226 15.9955C83.285 15.9955 84.0866 15.5376 84.5283 14.9159V15.4233C84.5283 15.6204 84.692 15.767 84.8719 15.767H86.5236C86.7197 15.767 86.8673 15.6195 86.8673 15.4233V4.66321C86.8673 4.46615 86.7197 4.31954 86.5236 4.31954H84.8719C84.6758 4.31954 84.5121 4.4671 84.5121 4.66321V8.62056ZM84.5882 11.7935C84.5882 12.972 83.7714 13.8212 82.6814 13.8212C81.5914 13.8212 80.7746 12.972 80.7746 11.7935C80.7746 10.6149 81.5914 9.76578 82.6814 9.76578C83.7705 9.76578 84.5882 10.6149 84.5882 11.7935Z" fill="#111111"/>
<path d="M93.6053 7.80376H95.2532C95.5797 7.80376 95.6778 8.03224 95.5607 8.36162L93.096 16.8142C92.621 18.3183 91.5586 19.2179 89.9069 19.2179C89.1568 19.2179 88.4723 19.0646 87.9363 18.7581C87.625 18.5801 87.3651 18.4163 87.3651 18.1565C87.3651 17.9946 87.4169 17.9118 87.511 17.7612L87.5127 17.7585L88.002 17.0255C88.14 16.8218 88.2419 16.7552 88.3904 16.7552C88.5056 16.7552 88.5979 16.7913 88.716 16.8675C89.0244 17.0674 89.31 17.2388 89.7451 17.2388C90.2525 17.2388 90.6418 17.075 90.8503 16.4696L91.0626 15.768H90.0649C89.8193 15.768 89.6889 15.6204 89.6232 15.4243L87.4194 8.35971C87.3385 8.08174 87.4137 7.80376 87.8221 7.80376H89.5594C89.7717 7.80376 89.9193 7.87707 90.0135 8.17979L91.6423 13.8678L93.1636 8.17979C93.2131 7.98369 93.3435 7.80376 93.6053 7.80376Z" fill="#111111"/>
<path d="M32.4383 15.986C34.1404 15.986 35.6455 15.2986 36.5108 14.2048V15.39C36.5108 15.6014 36.6726 15.7632 36.884 15.7632H38.2472C38.4585 15.7632 38.6204 15.6014 38.6204 15.39V10.8748C38.6204 10.6635 38.4585 10.5178 38.2472 10.5178H34.0347C33.8234 10.5178 33.6615 10.6797 33.6615 10.891V12.1181C33.6615 12.3294 33.8234 12.4913 34.0347 12.4913H35.4722C35.0219 13.1167 34.0557 13.6898 32.8438 13.6898C30.5419 13.6898 29.3025 12.0524 29.3025 10.0599C29.3025 8.00463 30.7552 6.41865 32.7857 6.41865C34.3498 6.41865 35.3713 7.15642 35.9377 8.24262C35.9967 8.34734 36.0462 8.4235 36.1281 8.46062C36.2033 8.49489 36.3071 8.4968 36.4299 8.45586L38.0225 7.84279C38.2396 7.76664 38.3072 7.68953 38.3072 7.58577C38.3072 7.5315 38.2938 7.47533 38.2662 7.40394C37.3742 5.22868 35.3627 4.14724 32.8476 4.14724C29.4405 4.14724 26.7436 6.59952 26.7436 10.158C26.7436 13.5822 29.2415 15.986 32.4383 15.986Z" fill="#111111"/>
</svg>
